HIERARCHY
ROOT hip
{
  OFFSET 0 90.174 2.4664
  CHANNELS 6 Xposition Yposition Zposition Zrotation Xrotation Yrotation
  JOINT abdomen
  {
    OFFSET 0 -1.186 -1.5018
    CHANNELS 6 Xposition Yposition Zposition Zrotation Xrotation Yrotation
    JOINT abdomen2
    {
      OFFSET 0 9.964 0.2134
      CHANNELS 6 Xposition Yposition Zposition Zrotation Xrotation Yrotation
      JOINT chest
      {
        OFFSET 0 13.134 -3.2573
        CHANNELS 6 Xposition Yposition Zposition Zrotation Xrotation Yrotation
        JOINT neck
        {
          OFFSET 0 20.686 -1.6905
          CHANNELS 6 Xposition Yposition Zposition Zrotation Xrotation Yrotation
          JOINT head
          {
            OFFSET 0 7.238 -0.1237
            CHANNELS 6 Xposition Yposition Zposition Zrotation Xrotation Yrotation
            End Site
            {
              OFFSET 0 0 0
            }
          }
        }
        JOINT lCollar
        {
          OFFSET 1.7069 20.075 5.0056
          CHANNELS 6 Xposition Yposition Zposition Zrotation Xrotation Yrotation
          JOINT lShldr
          {
            OFFSET 13.6458 -0.047 -4.849
            CHANNELS 6 Xposition Yposition Zposition Zrotation Xrotation Yrotation
            JOINT lForeArm
            {
              OFFSET 28.3255 -0.9759 2.2888
              CHANNELS 6 Xposition Yposition Zposition Zrotation Xrotation Yrotation
              JOINT lHand
              {
                OFFSET 22.1583 -0.53 10.8316
                CHANNELS 6 Xposition Yposition Zposition Zrotation Xrotation Yrotation
                JOINT lThumb1
                {
                  OFFSET 0.786 0.112 2.5817
                  CHANNELS 6 Xposition Yposition Zposition Zrotation Xrotation Yrotation
                  JOINT lThumb2
                  {
                    OFFSET 0.3601 -0.878 4.2331
                    CHANNELS 6 Xposition Yposition Zposition Zrotation Xrotation Yrotation
                    JOINT lThumb2_End
                    {
                      OFFSET 1.8127 -1.216 2.2227
                      CHANNELS 6 Xposition Yposition Zposition Zrotation Xrotation Yrotation
                      End Site
                      {
                        OFFSET 0.0181 -0.0122 0.0222
                      }
                    }
                  }
                }
                JOINT lCarpal1
                {
                  OFFSET 0.9571 1.114 1.7695
                  CHANNELS 6 Xposition Yposition Zposition Zrotation Xrotation Yrotation
                  JOINT lIndex1
                  {
                    OFFSET 4.1246 0.487 4.1451
                    CHANNELS 6 Xposition Yposition Zposition Zrotation Xrotation Yrotation
                    JOINT lIndex2
                    {
                      OFFSET 3.4052 -1.454 2.7682
                      CHANNELS 6 Xposition Yposition Zposition Zrotation Xrotation Yrotation
                      JOINT lIndex2_End
                      {
                        OFFSET 1.4531 -1.795 1.2713
                        CHANNELS 6 Xposition Yposition Zposition Zrotation Xrotation Yrotation
                        End Site
                        {
                          OFFSET 0.0145 -0.0179 0.0127
                        }
                      }
                    }
                  }
                  JOINT lMid1
                  {
                    OFFSET 5.6954 0.21 2.1184
                    CHANNELS 6 Xposition Yposition Zposition Zrotation Xrotation Yrotation
                    JOINT lMid2
                    {
                      OFFSET 3.9766 -1.54 2.3863
                      CHANNELS 6 Xposition Yposition Zposition Zrotation Xrotation Yrotation
                      JOINT lMid2_End
                      {
                        OFFSET 1.4042 -1.926 1.125
                        CHANNELS 6 Xposition Yposition Zposition Zrotation Xrotation Yrotation
                        End Site
                        {
                          OFFSET 0.014 -0.0193 0.0113
                        }
                      }
                    }
                  }
                }
                JOINT lCarpal2
                {
                  OFFSET 2.0956 0.66 -0.3894
                  CHANNELS 6 Xposition Yposition Zposition Zrotation Xrotation Yrotation
                  JOINT lRing1
                  {
                    OFFSET 5.0395 -0.09 2.4971
                    CHANNELS 6 Xposition Yposition Zposition Zrotation Xrotation Yrotation
                    JOINT lRing2
                    {
                      OFFSET 3.7921 -1.552 1.4806
                      CHANNELS 6 Xposition Yposition Zposition Zrotation Xrotation Yrotation
                      JOINT lRing2_End
                      {
                        OFFSET 1.4655 -1.808 0.9609
                        CHANNELS 6 Xposition Yposition Zposition Zrotation Xrotation Yrotation
                        End Site
                        {
                          OFFSET 0.0147 -0.0181 0.0096
                        }
                      }
                    }
                  }
                  JOINT lPinky1
                  {
                    OFFSET 4.9141 -1.269 0.3591
                    CHANNELS 6 Xposition Yposition Zposition Zrotation Xrotation Yrotation
                    JOINT lPinky2
                    {
                      OFFSET 3.1477 -1.685 0.8462
                      CHANNELS 6 Xposition Yposition Zposition Zrotation Xrotation Yrotation
                      JOINT lPinky2_End
                      {
                        OFFSET 0.8055 -1.585 0.7955
                        CHANNELS 6 Xposition Yposition Zposition Zrotation Xrotation Yrotation
                        End Site
                        {
                          OFFSET 0.0081 -0.0158 0.008
                        }
                      }
                    }
                  }
                }
              }
            }
          }
        }
        JOINT rCollar
        {
          OFFSET -1.7069 20.075 5.0056
          CHANNELS 6 Xposition Yposition Zposition Zrotation Xrotation Yrotation
          JOINT rShldr
          {
            OFFSET -13.6458 -0.047 -4.849
            CHANNELS 6 Xposition Yposition Zposition Zrotation Xrotation Yrotation
            JOINT rForeArm
            {
              OFFSET -28.3255 -0.9759 2.2888
              CHANNELS 6 Xposition Yposition Zposition Zrotation Xrotation Yrotation
              JOINT rHand
              {
                OFFSET -22.1583 -0.53 10.8316
                CHANNELS 6 Xposition Yposition Zposition Zrotation Xrotation Yrotation
                JOINT rThumb1
                {
                  OFFSET -0.786 0.112 2.5817
                  CHANNELS 6 Xposition Yposition Zposition Zrotation Xrotation Yrotation
                  JOINT rThumb2
                  {
                    OFFSET -0.3601 -0.878 4.2331
                    CHANNELS 6 Xposition Yposition Zposition Zrotation Xrotation Yrotation
                    JOINT rThumb2_End
                    {
                      OFFSET -1.8127 -1.216 2.2227
                      CHANNELS 6 Xposition Yposition Zposition Zrotation Xrotation Yrotation
                      End Site
                      {
                        OFFSET -0.0181 -0.0122 0.0222
                      }
                    }
                  }
                }
                JOINT rCarpal1
                {
                  OFFSET -0.9571 1.114 1.7695
                  CHANNELS 6 Xposition Yposition Zposition Zrotation Xrotation Yrotation
                  JOINT rIndex1
                  {
                    OFFSET -4.1246 0.487 4.1451
                    CHANNELS 6 Xposition Yposition Zposition Zrotation Xrotation Yrotation
                    JOINT rIndex2
                    {
                      OFFSET -3.4052 -1.454 2.7682
                      CHANNELS 6 Xposition Yposition Zposition Zrotation Xrotation Yrotation
                      JOINT rIndex2_End
                      {
                        OFFSET -1.4531 -1.795 1.2713
                        CHANNELS 6 Xposition Yposition Zposition Zrotation Xrotation Yrotation
                        End Site
                        {
                          OFFSET -0.0145 -0.018 0.0127
                        }
                      }
                    }
                  }
                  JOINT rMid1
                  {
                    OFFSET -5.6954 0.21 2.1184
                    CHANNELS 6 Xposition Yposition Zposition Zrotation Xrotation Yrotation
                    JOINT rMid2
                    {
                      OFFSET -3.9766 -1.54 2.3863
                      CHANNELS 6 Xposition Yposition Zposition Zrotation Xrotation Yrotation
                      JOINT rMid2_End
                      {
                        OFFSET -1.4042 -1.926 1.125
                        CHANNELS 6 Xposition Yposition Zposition Zrotation Xrotation Yrotation
                        End Site
                        {
                          OFFSET -0.014 -0.0193 0.0113
                        }
                      }
                    }
                  }
                }
                JOINT rCarpal2
                {
                  OFFSET -2.0956 0.66 -0.3894
                  CHANNELS 6 Xposition Yposition Zposition Zrotation Xrotation Yrotation
                  JOINT rRing1
                  {
                    OFFSET -5.0395 -0.09 2.4971
                    CHANNELS 6 Xposition Yposition Zposition Zrotation Xrotation Yrotation
                    JOINT rRing2
                    {
                      OFFSET -3.7921 -1.552 1.4806
                      CHANNELS 6 Xposition Yposition Zposition Zrotation Xrotation Yrotation
                      JOINT rRing2_End
                      {
                        OFFSET -1.4655 -1.808 0.9609
                        CHANNELS 6 Xposition Yposition Zposition Zrotation Xrotation Yrotation
                        End Site
                        {
                          OFFSET -0.0147 -0.0181 0.0096
                        }
                      }
                    }
                  }
                  JOINT rPinky1
                  {
                    OFFSET -4.9141 -1.269 0.3592
                    CHANNELS 6 Xposition Yposition Zposition Zrotation Xrotation Yrotation
                    JOINT rPinky2
                    {
                      OFFSET -3.1477 -1.685 0.8462
                      CHANNELS 6 Xposition Yposition Zposition Zrotation Xrotation Yrotation
                      JOINT rPinky2_End
                      {
                        OFFSET -0.8055 -1.585 0.7955
                        CHANNELS 6 Xposition Yposition Zposition Zrotation Xrotation Yrotation
                        End Site
                        {
                          OFFSET -0.0081 -0.0158 0.008
                        }
                      }
                    }
                  }
                }
              }
            }
          }
        }
      }
    }
  }
  JOINT lThigh
  {
    OFFSET 8.367 -8.2066 0.5982
    CHANNELS 6 Xposition Yposition Zposition Zrotation Xrotation Yrotation
    JOINT lShin
    {
      OFFSET 2.1923 -43.463 -0.4932
      CHANNELS 6 Xposition Yposition Zposition Zrotation Xrotation Yrotation
      JOINT lFoot
      {
        OFFSET 0.7333 -45.8593 -2.6451
        CHANNELS 6 Xposition Yposition Zposition Zrotation Xrotation Yrotation
        End Site
        {
          OFFSET 2.6618 -4.2699 12.3931
        }
      }
    }
  }
  JOINT rThigh
  {
    OFFSET -8.367 -8.2066 0.5982
    CHANNELS 6 Xposition Yposition Zposition Zrotation Xrotation Yrotation
    JOINT rShin
    {
      OFFSET -2.1923 -43.463 -0.4931
      CHANNELS 6 Xposition Yposition Zposition Zrotation Xrotation Yrotation
      JOINT rFoot
      {
        OFFSET -0.7333 -45.8593 -2.6451
        CHANNELS 6 Xposition Yposition Zposition Zrotation Xrotation Yrotation
        End Site
        {
          OFFSET -2.6618 -4.2699 12.3931
        }
      }
    }
  }
}
MOTION
Frames:	4
Frame Time:	0.0333333
0 90.174 2.4664 0 0 -0 0 -1.186 -1.5018 0 0 -0 0 9.964 0.2134 0 0 -0 0 13.134 -3.2573 0 0 -0 0 20.686 -1.6905 0 0 -0 0 7.238 -0.1237 0 0 -0 1.7069 20.075 5.0056 0 0 -0 13.6458 -0.047 -4.849 1.66051 0.0835086 5.75766 28.3255 -0.9759 2.2888 -0.0175111 0.895433 15.7816 22.1583 -0.53 10.8316 7.95139e-016 -1.98785e-016 -0 0.786 0.112 2.5817 5.46658e-016 -3.97569e-016 -0 0.3601 -0.878 4.2331 5.96354e-016 0 -0 1.8127 -1.216 2.2227 3.97569e-016 1.98785e-016 9.54166e-015 0.9571 1.114 1.7695 1.49089e-016 -3.97569e-016 -0 4.1246 0.487 4.1451 6.4605e-016 0 3.18055e-015 3.4052 -1.454 2.7682 5.96354e-016 0 3.18055e-015 1.4531 -1.795 1.2713 8.94531e-016 -1.98785e-016 6.36111e-015 5.6954 0.21 2.1184 6.4605e-016 0 3.18055e-015 3.9766 -1.54 2.3863 5.96354e-016 0 3.18055e-015 1.4042 -1.926 1.125 8.94531e-016 -1.98785e-016 6.36111e-015 2.0956 0.66 -0.3894 1.49089e-016 -3.97569e-016 -0 5.0395 -0.09 2.4971 6.4605e-016 0 3.18055e-015 3.7921 -1.552 1.4806 5.96354e-016 0 3.18055e-015 1.4655 -1.808 0.9609 8.94531e-016 -1.98785e-016 6.36111e-015 4.9141 -1.269 0.3591 6.4605e-016 0 3.18055e-015 3.1477 -1.685 0.8462 5.96354e-016 0 3.18055e-015 0.8055 -1.585 0.7955 8.94531e-016 -1.98785e-016 6.36111e-015 -1.7069 20.075 5.0056 0 0 -0 -13.6458 -0.047 -4.849 -1.4496 0.0636048 -5.0245 -28.3255 -0.9759 2.2888 -1.74811 1.20616 -16.8394 -22.1583 -0.53 10.8316 -1.19271e-015 1.98785e-016 -3.18055e-015 -0.786 0.112 2.5817 -3.97569e-016 1.98785e-016 -3.18055e-015 -0.3601 -0.878 4.2331 -2.98177e-016 1.98785e-016 -3.18055e-015 -1.8127 -1.216 2.2227 -2.98177e-016 3.97569e-016 -0 -0.9571 1.114 1.7695 4.96962e-016 0 -6.36111e-015 -4.1246 0.487 4.1451 -9.93923e-017 3.97569e-016 -0 -3.4052 -1.454 2.7682 -8.94531e-016 5.96354e-016 -0 -1.4531 -1.795 1.2713 -3.97569e-016 3.97569e-016 -0 -5.6954 0.21 2.1184 -9.93923e-017 3.97569e-016 -0 -3.9766 -1.54 2.3863 -8.94531e-016 5.96354e-016 -0 -1.4042 -1.926 1.125 -3.97569e-016 3.97569e-016 -0 -2.0956 0.66 -0.3894 4.96962e-016 0 -6.36111e-015 -5.0395 -0.09 2.4971 -9.93923e-017 3.97569e-016 -0 -3.7921 -1.552 1.4806 -8.94531e-016 5.96354e-016 -0 -1.4655 -1.808 0.9609 -3.97569e-016 3.97569e-016 -0 -4.9141 -1.269 0.3592 -9.93923e-017 3.97569e-016 -0 -3.1477 -1.685 0.8462 -8.94531e-016 5.96354e-016 -0 -0.8055 -1.585 0.7955 -3.97569e-016 3.97569e-016 -0 8.367 -8.2066 0.5982 -4.66115 -1.03232 0.120763 2.1923 -43.463 -0.4932 0.00990601 1.55097 0.177175 0.7333 -45.8593 -2.6451 4.65196 -0.54114 -0.255042 -8.367 -8.2066 0.5982 4.66115 -1.03222 -0.120763 -2.1923 -43.463 -0.4931 -0.00990459 1.5509 -0.177176 -0.7333 -45.8593 -2.6451 -4.65196 -0.541171 0.255041 
-25.682 30.528 8.69205 0 27.9976 -0 0 -1.186 -1.5018 2.26255 16.1394 -2.10971 0 9.964 0.2134 5.52183 32.1616 -5.24551 0 13.134 -3.2573 5.52183 32.1616 -5.24551 7.10543e-015 20.686 -1.6905 8.60093 16.0882 -4.40387 7.10543e-015 7.238 -0.1237 -0.0014551 -21.629 -18.0023 1.7069 20.075 5.0056 -35.3583 -49.5819 51.2145 13.6458 -0.047 -4.849 -41.1478 14.7474 2.91609 28.3255 -0.9759 2.2888 -24.7506 11.6557 21.5535 22.1583 -0.53 10.8316 13.8293 3.35405 0.906911 0.786 0.112 2.5817 2.71596e-006 2.43023e-006 -6.51758e-007 0.3601 -0.878 4.2331 -7.95139e-016 1.78906e-015 -3.18055e-015 1.8127 -1.216 2.2227 5.08075e-006 3.09652e-006 1.86593e-006 0.9571 1.114 1.7695 2.38542e-015 1.78906e-015 -0 4.1246 0.487 4.1451 2.71596e-006 2.43023e-006 -6.51758e-007 3.4052 -1.454 2.7682 -3.97569e-015 -3.97569e-016 -0 1.4531 -1.795 1.2713 5.08075e-006 3.09652e-006 1.86593e-006 5.6954 0.21 2.1184 2.71596e-006 2.43023e-006 -6.51758e-007 3.9766 -1.54 2.3863 -3.97569e-015 -3.97569e-016 -0 1.4042 -1.926 1.125 5.08075e-006 3.09652e-006 1.86593e-006 2.0956 0.66 -0.3894 2.38542e-015 1.78906e-015 -0 5.0395 -0.09 2.4971 2.71596e-006 2.43023e-006 -6.51758e-007 3.7921 -1.552 1.4806 -3.97569e-015 -3.97569e-016 -0 1.4655 -1.808 0.9609 5.08075e-006 3.09652e-006 1.86593e-006 4.9141 -1.269 0.3591 2.71596e-006 2.43023e-006 -6.51758e-007 3.1477 -1.685 0.8462 -3.97569e-015 -3.97569e-016 -0 0.8055 -1.585 0.7955 5.08075e-006 3.09652e-006 1.86593e-006 -1.7069 20.075 5.0056 20.2222 -45.2534 -47.4379 -13.6458 -0.047 -4.849 41.4252 14.1546 1.66196 -28.3255 -0.9759 2.2888 34.239 18.4751 -21.6189 -22.1583 -0.53 10.8316 -26.9448 -9.49273 6.47832 -0.786 0.112 2.5817 -3.71244e-006 -4.64993e-006 -2.71822e-006 -0.3601 -0.878 4.2331 -3.47208e-006 6.64693e-006 2.77494e-006 -1.8127 -1.216 2.2227 -3.89607e-006 -9.70138e-007 -1.02686e-006 -0.9571 1.114 1.7695 7.95139e-016 -7.05686e-015 -1.59028e-015 -4.1246 0.487 4.1451 -3.71244e-006 -4.64993e-006 -2.71822e-006 -3.4052 -1.454 2.7682 -3.47208e-006 6.64693e-006 2.77494e-006 -1.4531 -1.795 1.2713 -3.89607e-006 -9.70138e-007 -1.02686e-006 -5.6954 0.21 2.1184 -3.71244e-006 -4.64993e-006 -2.71822e-006 -3.9766 -1.54 2.3863 -3.47208e-006 6.64693e-006 2.77494e-006 -1.4042 -1.926 1.125 -3.89607e-006 -9.70138e-007 -1.02686e-006 -2.0956 0.66 -0.3894 7.95139e-016 -7.05686e-015 -1.59028e-015 -5.0395 -0.09 2.4971 -3.71244e-006 -4.64993e-006 -2.71822e-006 -3.7921 -1.552 1.4806 -3.47208e-006 6.64693e-006 2.77494e-006 -1.4655 -1.808 0.9609 -3.89607e-006 -9.70138e-007 -1.02686e-006 -4.9141 -1.269 0.3592 -3.71244e-006 -4.64993e-006 -2.71822e-006 -3.1477 -1.685 0.8462 -3.47208e-006 6.64693e-006 2.77494e-006 -0.8055 -1.585 0.7955 -3.89607e-006 -9.70138e-007 -1.02686e-006 8.367 -8.2066 0.5982 7.23571 -80.7064 19.7033 2.1923 -43.463 -0.4932 172.066 44.1504 -166.869 0.7333 -45.8593 -2.6451 5.77644 68.4247 8.65272 -8.367 -8.2066 0.5982 -7.31811 -80.7229 -19.8508 -2.1923 -43.463 -0.4931 -171.952 44.1354 166.767 -0.7333 -45.8593 -2.6451 -5.50311 69.0103 -8.91203 
-25.682 30.528 8.69205 0 27.9976 -0 0 -1.186 -1.5018 2.26255 16.1394 -2.10971 0 9.964 0.2134 5.52183 32.1616 -5.24551 0 13.134 -3.2573 5.52183 32.1616 -5.24551 -3.55271e-015 20.686 -1.6905 7.06512 16.1291 -3.97876 3.55271e-015 7.238 -0.1237 -0.00156197 -22.764 -18.0023 1.7069 20.075 5.0056 -35.3583 -49.5819 51.2145 13.6458 -0.047 -4.849 -41.1478 14.7474 2.9161 28.3255 -0.9759 2.2888 -24.7506 11.6557 21.5535 22.1583 -0.53 10.8316 13.8293 3.35405 0.906919 0.786 0.112 2.5817 4.77083e-015 -1.0138e-014 -3.18055e-015 0.3601 -0.878 4.2331 3.57812e-015 -4.77083e-015 -3.18055e-015 1.8127 -1.216 2.2227 1.54826e-006 -2.54037e-006 1.3935e-006 0.9571 1.114 1.7695 1.59028e-015 -1.98785e-015 -0 4.1246 0.487 4.1451 6.36111e-015 -3.77691e-015 -0 3.4052 -1.454 2.7682 3.97569e-016 -4.77083e-015 -6.36111e-015 1.4531 -1.795 1.2713 1.54826e-006 -2.54037e-006 1.3935e-006 5.6954 0.21 2.1184 6.36111e-015 -3.77691e-015 -0 3.9766 -1.54 2.3863 3.97569e-016 -4.77083e-015 -6.36111e-015 1.4042 -1.926 1.125 1.54826e-006 -2.54037e-006 1.3935e-006 2.0956 0.66 -0.3894 1.59028e-015 -1.98785e-015 -0 5.0395 -0.09 2.4971 6.36111e-015 -3.77691e-015 -0 3.7921 -1.552 1.4806 3.97569e-016 -4.77083e-015 -6.36111e-015 1.4655 -1.808 0.9609 1.54826e-006 -2.54037e-006 1.3935e-006 4.9141 -1.269 0.3591 6.36111e-015 -3.77691e-015 -0 3.1477 -1.685 0.8462 3.97569e-016 -4.77083e-015 -6.36111e-015 0.8055 -1.585 0.7955 1.54826e-006 -2.54037e-006 1.3935e-006 -1.7069 20.075 5.0056 20.2222 -45.2534 -47.4379 -13.6458 -0.047 -4.849 41.4252 14.1546 1.66194 -28.3255 -0.9759 2.2888 34.239 18.4751 -21.6189 -22.1583 -0.53 10.8316 -26.9448 -9.49272 6.47832 -0.786 0.112 2.5817 -7.95139e-016 -3.18055e-015 -0 -0.3601 -0.878 4.2331 -0 -1.05356e-014 -0 -1.8127 -1.216 2.2227 -2.17937e-031 -7.85199e-015 -1.59028e-015 -0.9571 1.114 1.7695 -1.0483e-031 3.77691e-015 1.59028e-015 -4.1246 0.487 4.1451 1.19271e-015 5.96354e-016 1.11319e-014 -3.4052 -1.454 2.7682 -1.59028e-015 3.47873e-015 -1.59028e-015 -1.4531 -1.795 1.2713 -7.95139e-016 3.18055e-015 -1.59028e-015 -5.6954 0.21 2.1184 1.19271e-015 5.96354e-016 1.11319e-014 -3.9766 -1.54 2.3863 -1.59028e-015 3.47873e-015 -1.59028e-015 -1.4042 -1.926 1.125 -7.95139e-016 3.18055e-015 -1.59028e-015 -2.0956 0.66 -0.3894 -1.0483e-031 3.77691e-015 1.59028e-015 -5.0395 -0.09 2.4971 1.19271e-015 5.96354e-016 1.11319e-014 -3.7921 -1.552 1.4806 -1.59028e-015 3.47873e-015 -1.59028e-015 -1.4655 -1.808 0.9609 -7.95139e-016 3.18055e-015 -1.59028e-015 -4.9141 -1.269 0.3592 1.19271e-015 5.96354e-016 1.11319e-014 -3.1477 -1.685 0.8462 -1.59028e-015 3.47873e-015 -1.59028e-015 -0.8055 -1.585 0.7955 -7.95139e-016 3.18055e-015 -1.59028e-015 8.367 -8.2066 0.5982 7.23572 -80.7064 19.7034 2.1923 -43.463 -0.4932 172.066 44.1503 -166.869 0.7333 -45.8593 -2.6451 5.77644 68.4246 8.65271 -8.367 -8.2066 0.5982 -7.31816 -80.7229 -19.8509 -2.1923 -43.463 -0.4931 -171.952 44.1353 166.767 -0.7333 -45.8593 -2.6451 -5.50309 69.0103 -8.91205 
-25.682 30.528 8.69205 0 27.9976 -0 0 -1.186 -1.5018 2.26255 16.1394 -2.10971 -3.55271e-015 9.964 0.2134 5.52183 32.1616 -5.24551 3.55271e-015 13.134 -3.2573 5.52183 32.1616 -5.24552 0 20.686 -1.6905 5.52476 16.1594 -3.55148 -7.10543e-015 7.238 -0.1237 -0.00167337 -23.9007 -18.0023 1.7069 20.075 5.0056 -35.3583 -49.5819 51.2145 13.6458 -0.047 -4.849 -41.1477 14.7474 2.9161 28.3255 -0.9759 2.2888 -24.7506 11.6557 21.5535 22.1583 -0.53 10.8316 13.8293 3.35405 0.906913 0.786 0.112 2.5817 -5.96354e-015 -1.39149e-015 3.18055e-015 0.3601 -0.878 4.2331 1.98785e-015 1.98785e-016 3.18055e-015 1.8127 -1.216 2.2227 0 5.76476e-015 -0 0.9571 1.114 1.7695 -5.96354e-015 -2.38542e-015 3.18055e-015 4.1246 0.487 4.1451 -1.59028e-015 3.57812e-015 1.90833e-014 3.4052 -1.454 2.7682 -1.19271e-015 2.5842e-015 -1.27222e-014 1.4531 -1.795 1.2713 -7.95139e-016 -7.95139e-016 -3.18055e-015 5.6954 0.21 2.1184 -1.59028e-015 3.57812e-015 1.90833e-014 3.9766 -1.54 2.3863 -1.19271e-015 2.5842e-015 -1.27222e-014 1.4042 -1.926 1.125 -7.95139e-016 -7.95139e-016 -3.18055e-015 2.0956 0.66 -0.3894 -5.96354e-015 -2.38542e-015 3.18055e-015 5.0395 -0.09 2.4971 -1.59028e-015 3.57812e-015 1.90833e-014 3.7921 -1.552 1.4806 -1.19271e-015 2.5842e-015 -1.27222e-014 1.4655 -1.808 0.9609 -7.95139e-016 -7.95139e-016 -3.18055e-015 4.9141 -1.269 0.3591 -1.59028e-015 3.57812e-015 1.90833e-014 3.1477 -1.685 0.8462 -1.19271e-015 2.5842e-015 -1.27222e-014 0.8055 -1.585 0.7955 -7.95139e-016 -7.95139e-016 -3.18055e-015 -1.7069 20.075 5.0056 20.2222 -45.2534 -47.4379 -13.6458 -0.047 -4.849 41.4252 14.1546 1.66194 -28.3255 -0.9759 2.2888 34.239 18.4751 -21.6189 -22.1583 -0.53 10.8316 -26.9448 -9.49271 6.47833 -0.786 0.112 2.5817 -7.95139e-016 8.94531e-015 -1.59028e-015 -0.3601 -0.878 4.2331 -1.98785e-015 -9.93923e-017 -3.18055e-015 -1.8127 -1.216 2.2227 -1.98785e-015 3.08116e-015 -0 -0.9571 1.114 1.7695 -1.59028e-015 2.08724e-015 -1.59028e-015 -4.1246 0.487 4.1451 -2.38542e-015 9.24349e-015 -3.18055e-015 -3.4052 -1.454 2.7682 -1.98785e-015 2.78299e-015 1.59028e-015 -1.4531 -1.795 1.2713 -8.55194e-032 3.08116e-015 1.59028e-015 -5.6954 0.21 2.1184 -2.38542e-015 9.24349e-015 -3.18055e-015 -3.9766 -1.54 2.3863 -1.98785e-015 2.78299e-015 1.59028e-015 -1.4042 -1.926 1.125 -8.55194e-032 3.08116e-015 1.59028e-015 -2.0956 0.66 -0.3894 -1.59028e-015 2.08724e-015 -1.59028e-015 -5.0395 -0.09 2.4971 -2.38542e-015 9.24349e-015 -3.18055e-015 -3.7921 -1.552 1.4806 -1.98785e-015 2.78299e-015 1.59028e-015 -1.4655 -1.808 0.9609 -8.55194e-032 3.08116e-015 1.59028e-015 -4.9141 -1.269 0.3592 -2.38542e-015 9.24349e-015 -3.18055e-015 -3.1477 -1.685 0.8462 -1.98785e-015 2.78299e-015 1.59028e-015 -0.8055 -1.585 0.7955 -8.55194e-032 3.08116e-015 1.59028e-015 8.367 -8.2066 0.5982 7.23571 -80.7064 19.7034 2.1923 -43.463 -0.4932 172.066 44.1504 -166.869 0.7333 -45.8593 -2.6451 5.77646 68.4246 8.65269 -8.367 -8.2066 0.5982 -7.31816 -80.7229 -19.8509 -2.1923 -43.463 -0.4931 -171.952 44.1353 166.767 -0.7333 -45.8593 -2.6451 -5.50309 69.0102 -8.91205 
